<svg xmlns="http://www.w3.org/2000/svg" viewBox="0 0 153 178">
<g transform="translate(0,178) scale(.1,-.1)" fill="#000">
<path d="M1048 1740 l-30 -30 -470 0 -470 0 -29 -29 -29 -29 0 -785 0 -785 26
-31 26 -31 693 0 693 0 26 31 26 31 0 785 0 785 -29 29 c-20 20 -40 29 -61 29
-18 0 -33 6 -37 15 -12 34 -58 45 -183 45 l-122 0 -30 -30z m252 -285 c0 -124
-3 -225 -6 -225 -4 0 -24 10 -45 22 l-39 21 -50 -27 -50 -27 0 230 0 231 95 0
95 0 0 -225z m-1040 76 c0 -66 4 -92 15 -101 12 -10 18 -10 30 0 11 9 15 35
15 101 l0 89 365 0 365 0 0 -197 c0 -214 7 -245 49 -251 14 -2 44 6 67 18 l43
21 40 -21 c52 -26 76 -25 95 2 13 19 16 58 16 225 l0 203 30 0 30 0 0 -755 0
-755 -550 0 -550 0 -2 622 c-3 600 -4 623 -22 626 -10 2 -22 -2 -27 -10 -5 -7
-9 -289 -9 -625 l0 -613 -75 0 -75 0 0 755 0 755 75 0 75 0 0 -89z"/>
<path d="M164 1557 c-3 -9 -4 -28 -2 -44 2 -20 8 -28 23 -28 17 0 20 7 20 40
0 30 -4 41 -18 43 -9 2 -20 -3 -23 -11z"/>
<path d="M729 1134 c-7 -9 -15 -45 -17 -80 l-4 -64 -59 0 c-88 0 -99 -15 -99
-133 0 -124 9 -137 96 -137 l64 0 0 -60 c0 -51 4 -65 25 -85 22 -23 32 -25
118 -25 121 0 130 6 137 97 l5 68 65 3 c35 2 70 8 77 14 9 7 13 42 13 118 0
131 -6 140 -98 140 l-62 0 0 63 c0 91 -9 97 -142 97 -85 0 -108 -3 -119 -16z
m209 -116 l3 -77 77 -3 77 -3 3 -82 3 -83 -81 0 -80 0 0 -80 0 -80 -85 0 -85
0 0 80 0 80 -80 0 -80 0 0 85 0 85 80 0 80 0 0 80 0 81 83 -3 82 -3 3 -77z"/>
<path d="M165 588 c-3 -8 -4 -66 -3 -129 3 -106 4 -114 23 -114 19 0 20 7 20
125 0 111 -2 125 -18 128 -9 2 -19 -3 -22 -10z"/>
<path d="M665 344 c-12 -12 -13 -19 -4 -30 17 -21 361 -20 379 1 10 12 10 18
0 30 -19 23 -352 22 -375 -1z"/>
<path d="M164 277 c-3 -8 -4 -32 -2 -53 2 -31 7 -39 23 -39 17 0 20 7 20 50 0
39 -4 50 -18 53 -9 2 -20 -3 -23 -11z"/>
<path d="M776 251 c-3 -5 -3 -17 0 -26 5 -13 19 -15 78 -13 63 3 71 5 71 23 0
18 -8 20 -72 23 -39 2 -74 -1 -77 -7z"/>
</g>
</svg>
