<?xml version="1.0" standalone="no"?>
<!DOCTYPE svg PUBLIC "-//W3C//DTD SVG 20010904//EN"
 "http://www.w3.org/TR/2001/REC-SVG-20010904/DTD/svg10.dtd">
<svg version="1.0" xmlns="http://www.w3.org/2000/svg"
 width="400.000000pt" height="400.000000pt" viewBox="0 0 400.000000 400.000000"
 preserveAspectRatio="xMidYMid meet">

<g transform="translate(0.000000,400.000000) scale(0.100000,-0.100000)"
fill="#000000" stroke="none">
<path d="M1750 3925 c-8 -2 -49 -9 -90 -15 -608 -96 -1160 -490 -1436 -1025
-156 -302 -234 -637 -220 -945 17 -399 147 -764 386 -1081 74 -97 254 -281
355 -361 425 -337 943 -479 1485 -409 221 29 412 87 615 188 582 289 968 810
1069 1445 48 299 22 598 -79 895 -99 290 -229 499 -453 726 -299 303 -667 494
-1095 567 -95 16 -160 20 -320 19 -111 -1 -209 -3 -217 -4z m520 -170 c283
-50 553 -164 730 -308 138 -113 247 -292 296 -487 24 -94 26 -116 21 -225 -15
-304 -172 -521 -455 -630 -86 -34 -86 -34 -126 70 -15 39 -47 106 -71 150 -33
62 -45 98 -54 162 -7 45 -21 114 -32 153 l-19 71 39 65 c45 74 56 125 49 222
-15 207 -239 405 -516 458 -150 29 -355 13 -508 -39 -100 -35 -139 -56 -125
-70 7 -7 39 -2 113 21 144 44 236 56 376 49 197 -10 323 -57 427 -162 82 -81
109 -147 110 -261 0 -54 -5 -86 -14 -98 -12 -15 -20 -10 -80 53 -108 112 -215
154 -394 153 -163 -1 -255 -33 -341 -117 -50 -48 -96 -133 -96 -177 0 -34 -9
-58 -22 -58 -6 0 -41 29 -78 64 -78 73 -184 134 -290 168 -65 20 -96 23 -225
23 -198 0 -299 -24 -474 -112 -68 -35 -126 -61 -129 -58 -7 7 66 134 116 199
302 399 745 660 1242 732 122 17 401 11 530 -11z m-141 -720 c191 -40 327
-173 376 -370 65 -261 35 -631 -66 -812 -15 -28 -34 -72 -40 -97 -10 -40 -15
-46 -38 -46 -97 0 -251 141 -315 287 -22 49 -19 66 25 188 20 56 34 116 37
160 4 72 -12 180 -29 190 -5 4 -34 -3 -64 -14 -119 -45 -204 -38 -272 22 -103
90 -111 276 -18 385 62 71 139 101 322 121 6 0 43 -6 82 -14z m1470 -260 c117
-240 167 -439 178 -700 12 -298 -50 -581 -185 -852 -88 -176 -173 -295 -316
-441 -146 -150 -282 -252 -431 -323 -115 -55 -182 -75 -314 -91 -84 -11 -106
-10 -221 9 -218 37 -340 92 -467 208 -171 157 -252 365 -229 587 11 96 17 102
96 88 36 -7 121 -16 190 -20 106 -6 136 -12 200 -38 41 -17 102 -39 134 -49
54 -16 63 -23 89 -68 42 -73 90 -119 164 -155 103 -50 154 -57 259 -36 148 29
255 86 367 195 143 139 267 385 293 582 6 46 5 51 -12 47 -13 -2 -22 -16 -28
-43 -22 -105 -59 -221 -87 -278 -104 -206 -235 -335 -402 -394 -145 -50 -247
-41 -348 34 -76 56 -76 75 2 85 110 14 246 74 318 141 50 47 107 139 131 213
18 52 21 83 18 157 -4 124 -41 204 -123 267 -30 23 -55 46 -55 51 0 4 19 13
43 19 114 29 148 43 224 87 144 84 236 185 309 338 62 130 83 217 97 393 11
150 12 152 29 130 10 -13 44 -77 77 -143z m-2432 59 c85 -21 213 -87 272 -140
28 -25 51 -50 51 -56 0 -5 -24 -44 -54 -86 -29 -43 -65 -99 -79 -127 -27 -55
-48 -76 -120 -124 -26 -18 -78 -59 -115 -92 -66 -60 -68 -61 -115 -55 -101 11
-223 -30 -293 -101 -102 -102 -148 -220 -147 -378 2 -235 89 -431 269 -607
108 -105 184 -160 184 -132 0 3 -47 51 -103 107 -164 161 -253 318 -284 496
-17 100 -5 214 30 290 43 92 170 191 250 195 39 1 39 -8 3 -109 -21 -57 -26
-88 -26 -171 0 -147 44 -258 141 -355 120 -120 283 -158 425 -99 58 25 65 12
42 -77 -16 -63 -19 -99 -15 -188 6 -130 24 -201 77 -308 87 -173 252 -342 427
-438 35 -19 63 -38 63 -43 0 -14 -306 0 -393 18 -201 41 -343 88 -503 166
-398 197 -735 566 -882 970 -122 332 -139 700 -45 925 64 152 201 314 350 412
181 119 393 157 590 107z m881 -490 c-4 -70 -10 -93 -45 -165 -22 -46 -56
-101 -74 -122 -31 -34 -41 -39 -104 -48 -95 -13 -169 -35 -237 -71 -62 -33
-163 -131 -153 -148 4 -6 24 -22 45 -35 85 -54 122 -113 123 -195 1 -101 -64
-179 -185 -225 -62 -23 -166 -17 -224 13 -166 85 -268 296 -235 485 33 187
197 357 475 492 194 94 271 115 414 115 64 0 131 3 147 8 47 15 58 -7 53 -104z
m1 -483 c33 -43 82 -97 108 -120 62 -53 159 -100 224 -108 59 -7 69 1 69 62 0
68 20 117 64 161 70 70 160 80 272 30 107 -49 158 -138 158 -276 0 -68 -4 -83
-39 -148 -94 -179 -285 -286 -482 -268 -130 12 -298 73 -444 161 -172 105
-273 195 -332 295 -21 36 -53 83 -72 105 -19 22 -35 45 -35 52 0 27 131 104
206 122 22 5 85 9 141 10 l102 1 60 -79z"/>
<path d="M1819 2827 c-30 -15 -36 -52 -13 -78 21 -24 36 -24 64 -1 45 36 1
104 -51 79z m34 -32 c8 -18 -11 -31 -25 -17 -11 11 -3 32 12 32 4 0 10 -7 13
-15z"/>
<path d="M1326 1534 c-21 -21 -20 -47 2 -67 37 -34 82 -15 82 33 0 14 -5 31
-12 38 -17 17 -54 15 -72 -4z m54 -24 c0 -13 -7 -20 -20 -20 -19 0 -27 20 -13
33 13 14 33 6 33 -13z"/>
<path d="M2692 1758 c-31 -31 5 -92 47 -81 25 6 40 43 30 71 -9 25 -56 31 -77
10z m47 -45 c-15 -18 -34 -1 -25 22 5 14 9 15 21 5 12 -10 13 -16 4 -27z"/>
</g>
</svg>
