<svg xmlns="http://www.w3.org/2000/svg" viewBox="0 0 102.89 122.88" fill="#39f8c5">
<path d="M45.64,35.18c4.72,0,9.23,0.94,13.34,2.64c4.27,1.77,8.12,4.36,11.33,7.58c6.31,6.31,10.22,15.04,10.22,24.67 c0,4.72-0.94,9.23-2.64,13.34c-1.77,4.27-4.36,8.11-7.58,11.33c-3.22,3.22-7.06,5.81-11.33,7.58c-4.11,1.7-8.62,2.64-13.34,2.64 c-4.72,0-9.23-0.94-13.34-2.64c-4.27-1.77-8.11-4.36-11.33-7.58c-3.22-3.22-5.81-7.06-7.58-11.33c-1.7-4.11-2.64-8.62-2.64-13.34 c0-4.72,0.94-9.23,2.64-13.34c1.77-4.27,4.36-8.12,7.58-11.33c3.22-3.22,7.06-5.81,11.33-7.58C36.41,36.12,40.91,35.18,45.64,35.18 L45.64,35.18z M47.84,77.69c0.46-0.23,0.97-0.25,1.42-0.09c0.44,0.15,0.83,0.46,1.06,0.91l0.03,0.05c0.21,0.45,0.23,0.95,0.08,1.39 c-0.15,0.44-0.46,0.83-0.91,1.06l-0.05,0.03c-0.3,0.15-0.6,0.29-0.9,0.41c-0.3,0.13-0.63,0.26-0.97,0.39 c-0.32,0.12-0.64,0.23-0.96,0.33c-0.32,0.1-0.65,0.2-0.99,0.29c-1.37,0.38-2.82,0.7-4.19,0.84c-1.39,0.14-2.71,0.1-3.78-0.27 c-1.4-0.49-2.41-1.36-2.77-2.78c-0.35-1.36-0.08-3.21,1.04-5.69c0.18-0.4,0.37-0.82,0.54-1.26c0.17-0.42,0.33-0.85,0.47-1.27 c0-0.16,0.03-0.33,0.07-0.48c0.04-0.15,0.11-0.3,0.19-0.45c0.06-0.26,0.11-0.52,0.15-0.77l0-0.01c0.04-0.26,0.06-0.52,0.06-0.77 c0-0.6-0.13-1.17-0.48-1.66c-0.36-0.51-0.94-0.95-1.84-1.29c-0.23-0.08-0.48-0.12-0.76-0.12c-0.29,0-0.62,0.06-0.97,0.16 c-0.42,0.12-0.86,0.3-1.33,0.55c-0.46,0.24-0.95,0.54-1.46,0.89l-1.25,2.1c-0.26,0.44-0.68,0.74-1.14,0.85 c-0.46,0.12-0.97,0.06-1.41-0.2c-0.44-0.26-0.74-0.68-0.85-1.14c-0.12-0.46-0.06-0.97,0.2-1.41l0.27-0.46 c-0.28,0.03-0.51,0.1-0.71,0.19c-0.22,0.11-0.39,0.25-0.52,0.42c-0.11,0.15-0.2,0.32-0.26,0.51c-0.07,0.2-0.11,0.43-0.12,0.67 c-0.01,0.28,0.01,0.58,0.08,0.88c0.06,0.3,0.17,0.62,0.31,0.93c0.3,0.66,0.76,1.31,1.4,1.87c0.51,0.45,1.12,0.85,1.85,1.17 l0.15-0.31c0.11-0.22,0.22-0.44,0.34-0.65c0.27-0.49,0.57-0.96,0.87-1.41c0.34-0.5,0.7-0.97,1.07-1.42l0,0 c0.32-0.39,0.78-0.62,1.25-0.67c0.47-0.05,0.96,0.08,1.36,0.41l0,0c0.39,0.32,0.62,0.78,0.67,1.25c0.05,0.47-0.08,0.96-0.41,1.36 c-0.3,0.37-0.6,0.76-0.87,1.16c-0.25,0.37-0.49,0.74-0.7,1.13c-0.17,0.3-0.32,0.6-0.45,0.9c-0.12,0.27-0.22,0.54-0.3,0.82 l-0.02,0.16c-0.34,2.53-0.36,4.68-0.06,6.47c0.29,1.76,0.88,3.17,1.77,4.25c0.86,1.05,2.03,1.81,3.51,2.31 c1.49,0.51,3.3,0.75,5.39,0.74l0.02,0c1.35-0.11,2.62-0.29,3.82-0.54c1.21-0.25,2.36-0.56,3.44-0.94c1.06-0.37,2.06-0.81,3.01-1.31 c0.95-0.5,1.83-1.07,2.66-1.7c1.11-0.84,2.22-1.88,3.23-3.05c0.91-1.05,1.72-2.21,2.35-3.43c0.53-1.02,0.92-2.08,1.12-3.14 c0.18-0.96,0.19-1.92,0.01-2.87c-0.04-0.22-0.09-0.44-0.12-0.66c-0.23-1.15-0.39-1.96-0.46-2.6c-0.08-0.68-0.05-1.19,0.1-1.7 c0.12-0.4,0.27-0.71,0.48-1l0.02-0.03c0.2-0.28,0.43-0.52,0.71-0.83l0.02-0.02c0.42-0.46,1.03-1.11,1.8-2.23 c0.3-0.43,0.57-0.85,0.8-1.26c0.24-0.41,0.44-0.82,0.62-1.22c0.17-0.38,0.31-0.75,0.43-1.13c0.12-0.37,0.2-0.73,0.26-1.09 c0.23-1.35,0.2-2.63-0.03-3.8c-0.25-1.24-0.73-2.36-1.39-3.32c-0.34-0.49-0.72-0.95-1.14-1.36c-0.43-0.41-0.89-0.78-1.39-1.1 c-0.5-0.32-1.02-0.59-1.57-0.8c-0.54-0.21-1.11-0.37-1.69-0.46c-1.1-0.19-2.26-0.16-3.43,0.11c-1.1,0.26-2.2,0.73-3.26,1.46 c-0.53,0.36-0.98,0.76-1.37,1.18c-0.38,0.43-0.69,0.89-0.95,1.39l-0.01,0.02c-0.27,0.52-0.48,1.1-0.65,1.73 c-0.17,0.64-0.3,1.34-0.38,2.1c-0.11,0.92-0.19,1.83-0.22,2.72c-0.03,0.89,0,1.77,0.1,2.61c0.06,0.44,0.14,0.88,0.24,1.32 c0.1,0.42,0.23,0.83,0.39,1.23l0.07,0.12c0.03,0.05,0.05,0.1,0.08,0.17c0.03,0.06,0.05,0.11,0.06,0.16l0.04,0.13 c0.11,0.23,0.23,0.45,0.36,0.66c0.14,0.23,0.29,0.45,0.45,0.68c0.15,0.2,0.29,0.37,0.43,0.49c0.13,0.12,0.26,0.21,0.38,0.27 c0.08,0.04,0.17,0.06,0.26,0.07c0.1,0.01,0.2,0,0.32-0.02l0.03-0.01c0.49-0.1,0.97,0.01,1.36,0.26c0.4,0.26,0.7,0.66,0.81,1.16 c0.1,0.47,0.02,0.94-0.2,1.32c-0.22,0.38-0.57,0.68-1.01,0.83l-0.03,0.01c-0.8,0.26-1.57,0.54-2.29,0.83 c-0.72,0.3-1.42,0.62-2.09,0.97c-0.64,0.34-1.23,0.69-1.78,1.08c-0.55,0.38-1.05,0.79-1.51,1.23c-0.37,0.35-0.85,0.53-1.32,0.52 c-0.48-0.01-0.95-0.2-1.3-0.57c-0.36-0.37-0.53-0.85-0.52-1.32l0-0.01c0.01-0.47,0.2-0.94,0.57-1.3c0.59-0.57,1.24-1.09,1.93-1.58 c0.69-0.49,1.43-0.93,2.21-1.34c0.21-0.11,0.43-0.22,0.68-0.34l0.25-0.12l-0.19-0.25c-0.12-0.16-0.22-0.31-0.32-0.46l-0.13-0.19 c-0.49,0.23-0.96,0.47-1.42,0.71c-0.57,0.3-1.12,0.61-1.65,0.93c-0.64,0.39-1.27,0.81-1.88,1.26c-0.58,0.43-1.14,0.88-1.68,1.37 c-0.17,0.55-0.36,1.07-0.57,1.58c-0.22,0.54-0.44,1.05-0.66,1.53c-0.56,1.25-0.81,2.12-0.81,2.69c-0.01,0.44,0.14,0.66,0.37,0.75 c0.6,0.21,1.48,0.2,2.47,0.07c1.03-0.14,2.18-0.41,3.29-0.71c0.27-0.07,0.54-0.16,0.82-0.25c0.27-0.09,0.54-0.18,0.8-0.28 c0.27-0.1,0.53-0.21,0.78-0.31C47.31,77.94,47.57,77.82,47.84,77.69L47.84,77.69z M45.69,65.31c-0.08-0.29-0.15-0.59-0.22-0.9 c-0.08-0.4-0.15-0.81-0.2-1.22c-0.13-1.04-0.17-2.09-0.14-3.13c0.03-1.05,0.12-2.08,0.24-3.09c0.11-0.95,0.28-1.85,0.51-2.7 c0.23-0.86,0.54-1.66,0.92-2.41l0.01-0.02c0.4-0.77,0.88-1.48,1.46-2.14c0.58-0.66,1.26-1.26,2.06-1.8c1.47-1,3.01-1.66,4.55-2.02 c1.64-0.38,3.28-0.41,4.84-0.15c0.83,0.14,1.64,0.36,2.41,0.66c0.78,0.3,1.53,0.68,2.24,1.14c0.7,0.45,1.36,0.98,1.97,1.56 c0.6,0.58,1.14,1.23,1.62,1.93c0.92,1.35,1.6,2.92,1.95,4.63c0.33,1.61,0.37,3.35,0.06,5.19c-0.09,0.51-0.21,1.03-0.37,1.55 c-0.16,0.52-0.36,1.04-0.59,1.57c-0.23,0.51-0.49,1.02-0.78,1.53c-0.29,0.51-0.62,1.02-0.98,1.54c-0.96,1.38-1.65,2.13-2.14,2.65 l-0.33,0.36c-0.02,0.02-0.04,0.04-0.06,0.05c-0.01,0.08,0.02,0.26,0.07,0.59c0.07,0.44,0.2,1.06,0.38,1.94l0.13,0.62 c0.28,1.38,0.27,2.77,0.03,4.13c-0.26,1.48-0.79,2.93-1.5,4.3c-0.76,1.47-1.73,2.86-2.81,4.12c-1.19,1.39-2.51,2.62-3.81,3.61 c-0.98,0.75-2.03,1.42-3.15,2.02c-1.12,0.59-2.3,1.11-3.55,1.55c-1.24,0.43-2.54,0.79-3.91,1.07c-1.37,0.28-2.79,0.48-4.28,0.61 h-0.15c-2.69,0.03-5.03-0.31-7.02-1.03c-2.01-0.73-3.66-1.85-4.92-3.38c-1.16-1.41-1.97-3.15-2.41-5.23 c-0.42-1.99-0.52-4.29-0.27-6.92c-1.35-0.5-2.48-1.2-3.41-2.02c-1.06-0.93-1.84-2.02-2.34-3.15c-0.26-0.57-0.45-1.15-0.56-1.73 c-0.12-0.59-0.17-1.18-0.14-1.75c0.03-0.62,0.14-1.21,0.33-1.77c0.19-0.55,0.46-1.06,0.81-1.52c0.45-0.59,1.03-1.09,1.72-1.45 c0.65-0.34,1.4-0.56,2.25-0.63c0.35-0.03,0.7-0.02,1.05,0.01c0.35,0.04,0.69,0.1,1.04,0.19c0.17,0.04,0.34,0.1,0.51,0.15l0.33,0.12 c0.54-0.34,1.07-0.64,1.57-0.88c0.57-0.27,1.12-0.49,1.65-0.64l0.03-0.01c0.71-0.2,1.4-0.3,2.06-0.29 c0.68,0.01,1.33,0.13,1.95,0.36c1.21,0.45,2.14,1.03,2.85,1.7c0.16,0.15,0.31,0.31,0.44,0.47c-0.3-1.16-0.75-1.97-1.3-2.57 c-0.81-0.88-1.85-1.35-2.95-1.82l-0.06-0.02c-3.64-1.59-7.63-3.35-8.74-13.37c-0.06-0.51,0.1-0.99,0.4-1.37 c0.3-0.37,0.74-0.63,1.25-0.68c0.51-0.06,1,0.1,1.37,0.4c0.37,0.3,0.63,0.74,0.68,1.25c0.44,3.98,1.41,6.29,2.6,7.74 c1.17,1.43,2.6,2.06,3.96,2.65c1.62,0.71,3.17,1.38,4.41,2.73c1.17,1.27,2.04,3.12,2.37,6.1c0.29-0.16,0.58-0.31,0.88-0.46 C44.95,65.67,45.32,65.49,45.69,65.31L45.69,65.31z M99.22,3.21c0.12-0.5,0.43-0.9,0.83-1.15c0.41-0.25,0.91-0.35,1.4-0.23 c0.5,0.12,0.91,0.43,1.16,0.83c0.25,0.41,0.35,0.91,0.23,1.4c-1.85,7.79-4.11,15.13-6.21,21.98l-0.01,0.02 c-3.43,11.17-6.45,21-6.65,29.46c-0.09,3.73,0.53,6.86,1.53,9.71c1,2.86,2.38,5.47,3.79,8.13c1.61,3.04,3.26,6.15,4.51,9.83 c1.25,3.68,2.1,7.92,2.09,13.19c0,2.15-0.16,4.29-0.48,6.43c-0.32,2.14-0.8,4.28-1.46,6.43c-0.65,2.14-1.48,4.28-2.47,6.41 c-1,2.13-2.17,4.26-3.53,6.38c-0.28,0.43-0.7,0.71-1.17,0.81c-0.46,0.1-0.97,0.02-1.4-0.25c-0.43-0.28-0.71-0.7-0.81-1.17 c-0.1-0.46-0.02-0.97,0.25-1.4c1.27-1.99,2.37-3.97,3.29-5.94c0.93-1.98,1.69-3.95,2.29-5.92c0.6-1.96,1.04-3.93,1.34-5.89 c0.29-1.97,0.44-3.93,0.44-5.89c0-4.8-0.78-8.69-1.95-12.09c-1.17-3.41-2.72-6.34-4.23-9.19c-1.52-2.86-3-5.66-4.08-8.8 c-1.08-3.15-1.76-6.64-1.66-10.86c0.11-4.5,0.93-9.26,2.17-14.33c1.24-5.06,2.88-10.42,4.63-16.13l0.01-0.02 C95.14,18.22,97.36,11.01,99.22,3.21L99.22,3.21z M17.21,1.22c0.17-0.48,0.53-0.85,0.96-1.05c0.43-0.2,0.94-0.24,1.42-0.06 c0.48,0.17,0.85,0.53,1.05,0.96c0.2,0.43,0.24,0.94,0.06,1.42c-0.84,2.32-1.22,4.35-1.17,6.1c0.05,1.73,0.51,3.19,1.34,4.42 c0.86,1.26,2.14,2.33,3.79,3.2c1.67,0.89,3.73,1.59,6.13,2.11l0.02,0c0.49,0.11,0.9,0.42,1.15,0.81c0.26,0.4,0.36,0.9,0.25,1.4 l0,0.02c-0.05,0.24-0.15,0.46-0.29,0.65c-0.14,0.2-0.31,0.37-0.51,0.5c-4.28,3.15-8.14,6.69-11.52,10.49 c-3.45,3.89-6.41,8.05-8.81,12.39c-2.41,4.36-4.27,8.89-5.52,13.48C4.33,62.6,3.7,67.18,3.71,71.71c0.02,4.6,0.71,9.15,2.13,13.53 c1.37,4.2,3.41,8.24,6.18,12.01c2.06,2.81,4.53,5.47,7.42,7.94c2.79,2.39,5.98,4.6,9.57,6.59c0.37,0.21,0.65,0.53,0.81,0.89 c0.16,0.37,0.2,0.8,0.09,1.2l-1.77,7.33c-0.12,0.5-0.43,0.9-0.84,1.15c-0.4,0.25-0.91,0.34-1.4,0.22c-0.5-0.12-0.9-0.43-1.15-0.84 c-0.25-0.4-0.34-0.91-0.22-1.4l1.45-6.01c-3.51-2.04-6.63-4.28-9.39-6.69c-2.92-2.55-5.44-5.3-7.56-8.19 c-3.01-4.09-5.23-8.48-6.71-13.05C0.77,81.65,0.02,76.71,0,71.71c-0.02-4.84,0.66-9.74,1.97-14.57c1.32-4.89,3.3-9.71,5.87-14.35 c2.3-4.16,5.09-8.17,8.31-11.94c3.02-3.53,6.42-6.86,10.17-9.89c-1.8-0.62-3.4-1.37-4.76-2.26c-1.54-1.01-2.8-2.2-3.74-3.6 c-1.19-1.75-1.86-3.77-1.98-6.09C15.72,6.71,16.16,4.12,17.21,1.22L17.21,1.22z M67.68,48.03c-5.64-5.64-13.43-9.13-22.04-9.13 c-4.22,0-8.25,0.84-11.92,2.36c-3.81,1.58-7.24,3.89-10.12,6.77c-2.87,2.87-5.19,6.31-6.77,10.12c-1.52,3.67-2.36,7.7-2.36,11.92 c0,4.22,0.84,8.25,2.36,11.92c1.58,3.81,3.89,7.24,6.77,10.12c2.87,2.87,6.31,5.19,10.12,6.77c3.67,1.52,7.7,2.36,11.92,2.36 c4.22,0,8.25-0.84,11.92-2.36c3.81-1.58,7.24-3.89,10.12-6.77c2.87-2.87,5.19-6.31,6.77-10.12c1.52-3.67,2.36-7.7,2.36-11.92 c0-4.22-0.84-8.25-2.36-11.92C72.87,54.34,70.55,50.91,67.68,48.03L67.68,48.03z"/>
</svg>